# Blender v2.80 (sub 75) OBJ File: ''
# www.blender.org
mtllib TestSword_01.mtl
o Cube_Cube.001
v -60.665070 -1.000000 1.000000
v -60.665070 1.000000 1.000000
v -60.665070 -1.000000 -1.000000
v -60.665070 1.000000 -1.000000
v 1.000000 -1.000000 1.000000
v 1.000000 1.000000 1.000000
v 1.000000 -1.000000 -1.000000
v 1.000000 1.000000 -1.000000
v -60.665070 0.000000 3.214639
v -60.665070 0.000000 -3.214639
v 1.000000 0.000000 -3.214639
v 1.000000 0.000000 3.214639
v -60.665070 -0.852685 0.000000
v -60.665070 0.852685 0.000000
v 1.000000 -0.852685 0.000000
v 1.000000 0.852685 0.000000
v 1.000000 0.000000 0.000000
v -74.665070 0.000000 0.000000
v -1.681090 -1.000000 -1.000000
v -4.362180 -1.000000 -1.000000
v -7.043270 -1.000000 -1.000000
v -9.724360 -1.000000 -1.000000
v -12.405451 -1.000000 -1.000000
v -15.086541 -1.000000 -1.000000
v -17.767632 -1.000000 -1.000000
v -20.448721 -1.000000 -1.000000
v -23.129810 -1.000000 -1.000000
v -25.810900 -1.000000 -1.000000
v -28.491989 -1.000000 -1.000000
v -31.173079 -1.000000 -1.000000
v -33.854168 -1.000000 -1.000000
v -36.535259 -1.000000 -1.000000
v -39.216351 -1.000000 -1.000000
v -41.897442 -1.000000 -1.000000
v -44.578533 -1.000000 -1.000000
v -47.259621 -1.000000 -1.000000
v -49.940712 -1.000000 -1.000000
v -52.621803 -1.000000 -1.000000
v -55.302891 -1.000000 -1.000000
v -57.983978 -1.000000 -1.000000
v -57.983978 1.000000 -1.000000
v -55.302887 1.000000 -1.000000
v -52.621796 1.000000 -1.000000
v -49.940704 1.000000 -1.000000
v -47.259613 1.000000 -1.000000
v -44.578522 1.000000 -1.000000
v -41.897430 1.000000 -1.000000
v -39.216339 1.000000 -1.000000
v -36.535248 1.000000 -1.000000
v -33.854160 1.000000 -1.000000
v -31.173071 1.000000 -1.000000
v -28.491982 1.000000 -1.000000
v -25.810892 1.000000 -1.000000
v -23.129803 1.000000 -1.000000
v -20.448713 1.000000 -1.000000
v -17.767624 1.000000 -1.000000
v -15.086535 1.000000 -1.000000
v -12.405445 1.000000 -1.000000
v -9.724356 1.000000 -1.000000
v -7.043267 1.000000 -1.000000
v -4.362178 1.000000 -1.000000
v -1.681089 1.000000 -1.000000
v -57.983978 -1.000000 1.000000
v -55.302887 -1.000000 1.000000
v -52.621796 -1.000000 1.000000
v -49.940704 -1.000000 1.000000
v -47.259613 -1.000000 1.000000
v -44.578522 -1.000000 1.000000
v -41.897430 -1.000000 1.000000
v -39.216339 -1.000000 1.000000
v -36.535248 -1.000000 1.000000
v -33.854160 -1.000000 1.000000
v -31.173071 -1.000000 1.000000
v -28.491982 -1.000000 1.000000
v -25.810892 -1.000000 1.000000
v -23.129803 -1.000000 1.000000
v -20.448713 -1.000000 1.000000
v -17.767624 -1.000000 1.000000
v -15.086535 -1.000000 1.000000
v -12.405445 -1.000000 1.000000
v -9.724356 -1.000000 1.000000
v -7.043267 -1.000000 1.000000
v -4.362178 -1.000000 1.000000
v -1.681089 -1.000000 1.000000
v -1.681090 1.000000 1.000000
v -4.362180 1.000000 1.000000
v -7.043270 1.000000 1.000000
v -9.724360 1.000000 1.000000
v -12.405451 1.000000 1.000000
v -15.086541 1.000000 1.000000
v -17.767632 1.000000 1.000000
v -20.448721 1.000000 1.000000
v -23.129810 1.000000 1.000000
v -25.810900 1.000000 1.000000
v -28.491989 1.000000 1.000000
v -31.173079 1.000000 1.000000
v -33.854168 1.000000 1.000000
v -36.535259 1.000000 1.000000
v -39.216351 1.000000 1.000000
v -41.897442 1.000000 1.000000
v -44.578533 1.000000 1.000000
v -47.259621 1.000000 1.000000
v -49.940712 1.000000 1.000000
v -52.621803 1.000000 1.000000
v -55.302891 1.000000 1.000000
v -57.983978 1.000000 1.000000
v -1.681091 0.000000 3.214639
v -4.362181 0.000000 3.214639
v -7.043271 0.000000 3.214639
v -9.724360 0.000000 3.214639
v -12.405451 0.000000 3.214639
v -15.086541 0.000000 3.214639
v -17.767632 0.000000 3.214639
v -20.448721 0.000000 3.214639
v -23.129810 0.000000 3.214639
v -25.810900 0.000000 3.214639
v -28.491989 0.000000 3.214639
v -31.173079 0.000000 3.214639
v -33.854168 0.000000 3.214639
v -36.535259 0.000000 3.214639
v -39.216351 0.000000 3.214639
v -41.897442 0.000000 3.214639
v -44.578533 0.000000 3.214639
v -47.259621 0.000000 3.214639
v -49.940712 0.000000 3.214639
v -52.621803 0.000000 3.214639
v -55.302891 0.000000 3.214639
v -57.983978 0.000000 3.214639
v -57.983978 0.000000 -3.214639
v -55.302887 0.000000 -3.214639
v -52.621796 0.000000 -3.214639
v -49.940704 0.000000 -3.214639
v -47.259613 0.000000 -3.214639
v -44.578522 0.000000 -3.214639
v -41.897430 0.000000 -3.214639
v -39.216339 0.000000 -3.214639
v -36.535248 0.000000 -3.214639
v -33.854160 0.000000 -3.214639
v -31.173071 0.000000 -3.214639
v -28.491982 0.000000 -3.214639
v -25.810892 0.000000 -3.214639
v -23.129803 0.000000 -3.214639
v -20.448713 0.000000 -3.214639
v -17.767624 0.000000 -3.214639
v -15.086535 0.000000 -3.214639
v -12.405445 0.000000 -3.214639
v -9.724356 0.000000 -3.214639
v -7.043267 0.000000 -3.214639
v -4.362178 0.000000 -3.214639
v -1.681089 0.000000 -3.214639
v -57.983978 0.852685 0.000000
v -55.302887 0.852685 0.000000
v -52.621796 0.852685 0.000000
v -49.940704 0.852685 0.000000
v -47.259613 0.852685 0.000000
v -44.578522 0.852685 0.000000
v -41.897430 0.852685 0.000000
v -39.216339 0.852685 0.000000
v -36.535248 0.852685 0.000000
v -33.854160 0.852685 0.000000
v -31.173071 0.852685 0.000000
v -28.491982 0.852685 0.000000
v -25.810892 0.852685 0.000000
v -23.129803 0.852685 0.000000
v -20.448713 0.852685 0.000000
v -17.767624 0.852685 0.000000
v -15.086535 0.852685 0.000000
v -12.405445 0.852685 0.000000
v -9.724356 0.852685 0.000000
v -7.043267 0.852685 0.000000
v -4.362178 0.852685 0.000000
v -1.681089 0.852685 0.000000
v -1.681090 -0.852685 0.000000
v -4.362180 -0.852685 0.000000
v -7.043270 -0.852685 0.000000
v -9.724360 -0.852685 0.000000
v -12.405451 -0.852685 0.000000
v -15.086541 -0.852685 0.000000
v -17.767632 -0.852685 0.000000
v -20.448721 -0.852685 0.000000
v -23.129810 -0.852685 0.000000
v -25.810900 -0.852685 0.000000
v -28.491989 -0.852685 0.000000
v -31.173079 -0.852685 0.000000
v -33.854168 -0.852685 0.000000
v -36.535259 -0.852685 0.000000
v -39.216351 -0.852685 0.000000
v -41.897442 -0.852685 0.000000
v -44.578533 -0.852685 0.000000
v -47.259621 -0.852685 0.000000
v -49.940712 -0.852685 0.000000
v -52.621803 -0.852685 0.000000
v -55.302891 -0.852685 0.000000
v -57.983978 -0.852685 0.000000
vt 0.498960 0.993971
vt 0.512025 0.811056
vt 0.540960 0.811056
vt 0.540960 0.040410
vt 0.512025 0.040410
vt 0.512025 0.005381
vt 0.540960 0.005381
vt 0.498960 0.005381
vt 0.498960 0.005381
vt 0.485895 0.005381
vt 0.456960 0.005381
vt 0.456960 0.776027
vt 0.485895 0.776027
vt 0.485895 0.811056
vt 0.456960 0.811056
vt 0.498960 0.040410
vt 0.498960 0.005381
vt 0.485895 0.005381
vt 0.485895 0.040410
vt 0.498960 0.776027
vt 0.498960 0.811056
vt 0.485895 0.776027
vt 0.485895 0.811056
vt 0.512025 0.040410
vt 0.512025 0.005381
vt 0.498960 0.811056
vt 0.512025 0.811056
vt 0.512025 0.776027
vt 0.512025 0.776027
vt 0.498960 0.776027
vt 0.512025 0.740998
vt 0.498960 0.740998
vt 0.512025 0.705968
vt 0.498960 0.705968
vt 0.512025 0.670939
vt 0.498960 0.670939
vt 0.512025 0.635909
vt 0.498960 0.635909
vt 0.512025 0.600880
vt 0.498960 0.600880
vt 0.512025 0.565851
vt 0.498960 0.565851
vt 0.512025 0.530821
vt 0.498960 0.530821
vt 0.512025 0.495792
vt 0.498960 0.495792
vt 0.512025 0.460763
vt 0.498960 0.460763
vt 0.512025 0.425733
vt 0.498960 0.425733
vt 0.512025 0.390704
vt 0.498960 0.390704
vt 0.512025 0.355674
vt 0.498960 0.355674
vt 0.512025 0.320645
vt 0.498960 0.320645
vt 0.512025 0.285616
vt 0.498960 0.285616
vt 0.512025 0.250586
vt 0.498960 0.250586
vt 0.512025 0.215557
vt 0.498960 0.215557
vt 0.512025 0.180528
vt 0.498960 0.180528
vt 0.512025 0.145498
vt 0.498960 0.145498
vt 0.512025 0.110469
vt 0.498960 0.110469
vt 0.512025 0.075439
vt 0.498960 0.075439
vt 0.498960 0.040410
vt 0.512025 0.075439
vt 0.498960 0.075439
vt 0.512025 0.110469
vt 0.498960 0.110469
vt 0.512025 0.145498
vt 0.498960 0.145498
vt 0.512025 0.180528
vt 0.498960 0.180528
vt 0.512025 0.215557
vt 0.498960 0.215557
vt 0.512025 0.250586
vt 0.498960 0.250586
vt 0.512025 0.285616
vt 0.498960 0.285616
vt 0.512025 0.320645
vt 0.498960 0.320645
vt 0.512025 0.355674
vt 0.498960 0.355674
vt 0.512025 0.390704
vt 0.498960 0.390704
vt 0.512025 0.425733
vt 0.498960 0.425733
vt 0.512025 0.460762
vt 0.498960 0.460762
vt 0.512025 0.495792
vt 0.498960 0.495792
vt 0.512025 0.530821
vt 0.498960 0.530821
vt 0.512025 0.565851
vt 0.498960 0.565851
vt 0.512025 0.600880
vt 0.498960 0.600880
vt 0.512025 0.635909
vt 0.498960 0.635909
vt 0.512025 0.670939
vt 0.498960 0.670939
vt 0.512025 0.705968
vt 0.498960 0.705968
vt 0.512025 0.740998
vt 0.498960 0.740998
vt 0.540960 0.776027
vt 0.540960 0.740998
vt 0.540960 0.705968
vt 0.540960 0.670939
vt 0.540960 0.635909
vt 0.540960 0.600880
vt 0.540960 0.565851
vt 0.540960 0.530821
vt 0.540960 0.495792
vt 0.540960 0.460762
vt 0.540960 0.425733
vt 0.540960 0.390704
vt 0.540960 0.355674
vt 0.540960 0.320645
vt 0.540960 0.285616
vt 0.540960 0.250586
vt 0.540960 0.215557
vt 0.540960 0.180528
vt 0.540960 0.145498
vt 0.540960 0.110469
vt 0.540960 0.075439
vt 0.456960 0.040410
vt 0.456960 0.075439
vt 0.485895 0.075439
vt 0.456960 0.110469
vt 0.485895 0.110469
vt 0.456960 0.145498
vt 0.485895 0.145498
vt 0.456960 0.180528
vt 0.485895 0.180528
vt 0.456960 0.215557
vt 0.485895 0.215557
vt 0.456960 0.250586
vt 0.485895 0.250586
vt 0.456960 0.285616
vt 0.485895 0.285616
vt 0.456960 0.320645
vt 0.485895 0.320645
vt 0.456960 0.355674
vt 0.485895 0.355674
vt 0.456960 0.390704
vt 0.485895 0.390704
vt 0.456960 0.425733
vt 0.485895 0.425733
vt 0.456960 0.460763
vt 0.485895 0.460762
vt 0.456960 0.495792
vt 0.485895 0.495792
vt 0.456960 0.530821
vt 0.485895 0.530821
vt 0.456960 0.565851
vt 0.485895 0.565851
vt 0.456960 0.600880
vt 0.485895 0.600880
vt 0.456960 0.635909
vt 0.485895 0.635909
vt 0.456960 0.670939
vt 0.485895 0.670939
vt 0.456960 0.705968
vt 0.485895 0.705968
vt 0.456960 0.740998
vt 0.485895 0.740998
vt 0.485895 0.040410
vt 0.485895 0.075439
vt 0.485895 0.110469
vt 0.485895 0.145498
vt 0.485895 0.180528
vt 0.485895 0.215557
vt 0.485895 0.250586
vt 0.485895 0.285616
vt 0.485895 0.320645
vt 0.485895 0.355674
vt 0.485895 0.390704
vt 0.485895 0.425733
vt 0.485895 0.460763
vt 0.485895 0.495792
vt 0.485895 0.530821
vt 0.485895 0.565851
vt 0.485895 0.600880
vt 0.485895 0.635909
vt 0.485895 0.670939
vt 0.485895 0.705968
vt 0.485895 0.740998
vn -0.0941 0.9074 -0.4097
vn 0.0000 0.9114 -0.4115
vn 1.0000 -0.0000 0.0000
vn 0.0000 0.9114 0.4115
vn 0.0000 -0.9893 -0.1457
vn 0.0000 0.9893 -0.1457
vn 0.0000 -0.9114 0.4115
vn 0.0000 -0.9114 -0.4115
vn -0.0601 -0.9875 0.1455
vn -0.0941 -0.9074 0.4097
vn 0.0000 0.9893 0.1457
vn 0.0000 -0.9893 0.1457
vn -0.0941 0.9074 0.4097
vn -0.0601 0.9875 -0.1455
vn -0.0601 0.9875 0.1455
vn -0.0941 -0.9074 -0.4097
vn -0.0601 -0.9875 -0.1455
usemtl None
s off
f 18/1/1 4/2/1 10/3/1
f 150/4/2 62/5/2 8/6/2 11/7/2
f 17/8/3 16/9/3 6/10/3 12/11/3
f 128/12/4 106/13/4 2/14/4 9/15/4
f 173/16/5 15/17/5 5/18/5 84/19/5
f 151/20/6 14/21/6 2/14/6 106/13/6
f 63/22/7 128/12/7 9/15/7 1/23/7
f 15/17/3 17/8/3 12/11/3 5/18/3
f 19/24/8 150/4/8 11/7/8 7/25/8
f 13/26/9 18/1/9 3/27/9
f 1/23/10 9/15/10 18/1/10
f 7/25/3 11/7/3 17/8/3 15/17/3
f 41/28/11 4/2/11 14/21/11 151/20/11
f 19/24/12 7/25/12 15/17/12 173/16/12
f 11/7/3 8/6/3 16/9/3 17/8/3
f 9/15/13 2/14/13 18/1/13
f 18/1/14 2/14/14 14/21/14
f 4/2/15 18/1/15 14/21/15
f 3/27/16 18/1/16 10/3/16
f 18/1/17 13/26/17 1/23/17
f 3/27/12 40/29/12 194/30/12 13/26/12
f 40/29/12 39/31/12 193/32/12 194/30/12
f 39/31/12 38/33/12 192/34/12 193/32/12
f 38/33/12 37/35/12 191/36/12 192/34/12
f 37/35/12 36/37/12 190/38/12 191/36/12
f 36/37/12 35/39/12 189/40/12 190/38/12
f 35/39/12 34/41/12 188/42/12 189/40/12
f 34/41/12 33/43/12 187/44/12 188/42/12
f 33/43/12 32/45/12 186/46/12 187/44/12
f 32/45/12 31/47/12 185/48/12 186/46/12
f 31/47/12 30/49/12 184/50/12 185/48/12
f 30/49/12 29/51/12 183/52/12 184/50/12
f 29/51/12 28/53/12 182/54/12 183/52/12
f 28/53/12 27/55/12 181/56/12 182/54/12
f 27/55/12 26/57/12 180/58/12 181/56/12
f 26/57/12 25/59/12 179/60/12 180/58/12
f 25/59/12 24/61/12 178/62/12 179/60/12
f 24/61/12 23/63/12 177/64/12 178/62/12
f 23/63/12 22/65/12 176/66/12 177/64/12
f 22/65/12 21/67/12 175/68/12 176/66/12
f 21/67/12 20/69/12 174/70/12 175/68/12
f 20/69/12 19/24/12 173/16/12 174/70/12
f 8/6/11 62/5/11 172/71/11 16/9/11
f 62/5/11 61/72/11 171/73/11 172/71/11
f 61/72/11 60/74/11 170/75/11 171/73/11
f 60/74/11 59/76/11 169/77/11 170/75/11
f 59/76/11 58/78/11 168/79/11 169/77/11
f 58/78/11 57/80/11 167/81/11 168/79/11
f 57/80/11 56/82/11 166/83/11 167/81/11
f 56/82/11 55/84/11 165/85/11 166/83/11
f 55/84/11 54/86/11 164/87/11 165/85/11
f 54/86/11 53/88/11 163/89/11 164/87/11
f 53/88/11 52/90/11 162/91/11 163/89/11
f 52/90/11 51/92/11 161/93/11 162/91/11
f 51/92/11 50/94/11 160/95/11 161/93/11
f 50/94/11 49/96/11 159/97/11 160/95/11
f 49/96/11 48/98/11 158/99/11 159/97/11
f 48/98/11 47/100/11 157/101/11 158/99/11
f 47/100/11 46/102/11 156/103/11 157/101/11
f 46/102/11 45/104/11 155/105/11 156/103/11
f 45/104/11 44/106/11 154/107/11 155/105/11
f 44/106/11 43/108/11 153/109/11 154/107/11
f 43/108/11 42/110/11 152/111/11 153/109/11
f 42/110/11 41/28/11 151/20/11 152/111/11
f 3/27/8 10/3/8 129/112/8 40/29/8
f 40/29/8 129/112/8 130/113/8 39/31/8
f 39/31/8 130/113/8 131/114/8 38/33/8
f 38/33/8 131/114/8 132/115/8 37/35/8
f 37/35/8 132/115/8 133/116/8 36/37/8
f 36/37/8 133/116/8 134/117/8 35/39/8
f 35/39/8 134/117/8 135/118/8 34/41/8
f 34/41/8 135/118/8 136/119/8 33/43/8
f 33/43/8 136/119/8 137/120/8 32/45/8
f 32/45/8 137/120/8 138/121/8 31/47/8
f 31/47/8 138/121/8 139/122/8 30/49/8
f 30/49/8 139/122/8 140/123/8 29/51/8
f 29/51/8 140/123/8 141/124/8 28/53/8
f 28/53/8 141/124/8 142/125/8 27/55/8
f 27/55/8 142/125/8 143/126/8 26/57/8
f 26/57/8 143/126/8 144/127/8 25/59/8
f 25/59/8 144/127/8 145/128/8 24/61/8
f 24/61/8 145/128/8 146/129/8 23/63/8
f 23/63/8 146/129/8 147/130/8 22/65/8
f 22/65/8 147/130/8 148/131/8 21/67/8
f 21/67/8 148/131/8 149/132/8 20/69/8
f 20/69/8 149/132/8 150/4/8 19/24/8
f 5/18/7 12/11/7 107/133/7 84/19/7
f 84/19/7 107/133/7 108/134/7 83/135/7
f 83/135/7 108/134/7 109/136/7 82/137/7
f 82/137/7 109/136/7 110/138/7 81/139/7
f 81/139/7 110/138/7 111/140/7 80/141/7
f 80/141/7 111/140/7 112/142/7 79/143/7
f 79/143/7 112/142/7 113/144/7 78/145/7
f 78/145/7 113/144/7 114/146/7 77/147/7
f 77/147/7 114/146/7 115/148/7 76/149/7
f 76/149/7 115/148/7 116/150/7 75/151/7
f 75/151/7 116/150/7 117/152/7 74/153/7
f 74/153/7 117/152/7 118/154/7 73/155/7
f 73/155/7 118/154/7 119/156/7 72/157/7
f 72/157/7 119/156/7 120/158/7 71/159/7
f 71/159/7 120/158/7 121/160/7 70/161/7
f 70/161/7 121/160/7 122/162/7 69/163/7
f 69/163/7 122/162/7 123/164/7 68/165/7
f 68/165/7 123/164/7 124/166/7 67/167/7
f 67/167/7 124/166/7 125/168/7 66/169/7
f 66/169/7 125/168/7 126/170/7 65/171/7
f 65/171/7 126/170/7 127/172/7 64/173/7
f 64/173/7 127/172/7 128/12/7 63/22/7
f 16/9/6 172/71/6 85/174/6 6/10/6
f 172/71/6 171/73/6 86/175/6 85/174/6
f 171/73/6 170/75/6 87/176/6 86/175/6
f 170/75/6 169/77/6 88/177/6 87/176/6
f 169/77/6 168/79/6 89/178/6 88/177/6
f 168/79/6 167/81/6 90/179/6 89/178/6
f 167/81/6 166/83/6 91/180/6 90/179/6
f 166/83/6 165/85/6 92/181/6 91/180/6
f 165/85/6 164/87/6 93/182/6 92/181/6
f 164/87/6 163/89/6 94/183/6 93/182/6
f 163/89/6 162/91/6 95/184/6 94/183/6
f 162/91/6 161/93/6 96/185/6 95/184/6
f 161/93/6 160/95/6 97/186/6 96/185/6
f 160/95/6 159/97/6 98/187/6 97/186/6
f 159/97/6 158/99/6 99/188/6 98/187/6
f 158/99/6 157/101/6 100/189/6 99/188/6
f 157/101/6 156/103/6 101/190/6 100/189/6
f 156/103/6 155/105/6 102/191/6 101/190/6
f 155/105/6 154/107/6 103/192/6 102/191/6
f 154/107/6 153/109/6 104/193/6 103/192/6
f 153/109/6 152/111/6 105/194/6 104/193/6
f 152/111/6 151/20/6 106/13/6 105/194/6
f 13/26/5 194/30/5 63/22/5 1/23/5
f 194/30/5 193/32/5 64/173/5 63/22/5
f 193/32/5 192/34/5 65/171/5 64/173/5
f 192/34/5 191/36/5 66/169/5 65/171/5
f 191/36/5 190/38/5 67/167/5 66/169/5
f 190/38/5 189/40/5 68/165/5 67/167/5
f 189/40/5 188/42/5 69/163/5 68/165/5
f 188/42/5 187/44/5 70/161/5 69/163/5
f 187/44/5 186/46/5 71/159/5 70/161/5
f 186/46/5 185/48/5 72/157/5 71/159/5
f 185/48/5 184/50/5 73/155/5 72/157/5
f 184/50/5 183/52/5 74/153/5 73/155/5
f 183/52/5 182/54/5 75/151/5 74/153/5
f 182/54/5 181/56/5 76/149/5 75/151/5
f 181/56/5 180/58/5 77/147/5 76/149/5
f 180/58/5 179/60/5 78/145/5 77/147/5
f 179/60/5 178/62/5 79/143/5 78/145/5
f 178/62/5 177/64/5 80/141/5 79/143/5
f 177/64/5 176/66/5 81/139/5 80/141/5
f 176/66/5 175/68/5 82/137/5 81/139/5
f 175/68/5 174/70/5 83/135/5 82/137/5
f 174/70/5 173/16/5 84/19/5 83/135/5
f 12/11/4 6/10/4 85/174/4 107/133/4
f 107/133/4 85/174/4 86/175/4 108/134/4
f 108/134/4 86/175/4 87/176/4 109/136/4
f 109/136/4 87/176/4 88/177/4 110/138/4
f 110/138/4 88/177/4 89/178/4 111/140/4
f 111/140/4 89/178/4 90/179/4 112/142/4
f 112/142/4 90/179/4 91/180/4 113/144/4
f 113/144/4 91/180/4 92/181/4 114/146/4
f 114/146/4 92/181/4 93/182/4 115/148/4
f 115/148/4 93/182/4 94/183/4 116/150/4
f 116/150/4 94/183/4 95/184/4 117/152/4
f 117/152/4 95/184/4 96/185/4 118/154/4
f 118/154/4 96/185/4 97/186/4 119/156/4
f 119/156/4 97/186/4 98/187/4 120/158/4
f 120/158/4 98/187/4 99/188/4 121/160/4
f 121/160/4 99/188/4 100/189/4 122/162/4
f 122/162/4 100/189/4 101/190/4 123/164/4
f 123/164/4 101/190/4 102/191/4 124/166/4
f 124/166/4 102/191/4 103/192/4 125/168/4
f 125/168/4 103/192/4 104/193/4 126/170/4
f 126/170/4 104/193/4 105/194/4 127/172/4
f 127/172/4 105/194/4 106/13/4 128/12/4
f 10/3/2 4/2/2 41/28/2 129/112/2
f 129/112/2 41/28/2 42/110/2 130/113/2
f 130/113/2 42/110/2 43/108/2 131/114/2
f 131/114/2 43/108/2 44/106/2 132/115/2
f 132/115/2 44/106/2 45/104/2 133/116/2
f 133/116/2 45/104/2 46/102/2 134/117/2
f 134/117/2 46/102/2 47/100/2 135/118/2
f 135/118/2 47/100/2 48/98/2 136/119/2
f 136/119/2 48/98/2 49/96/2 137/120/2
f 137/120/2 49/96/2 50/94/2 138/121/2
f 138/121/2 50/94/2 51/92/2 139/122/2
f 139/122/2 51/92/2 52/90/2 140/123/2
f 140/123/2 52/90/2 53/88/2 141/124/2
f 141/124/2 53/88/2 54/86/2 142/125/2
f 142/125/2 54/86/2 55/84/2 143/126/2
f 143/126/2 55/84/2 56/82/2 144/127/2
f 144/127/2 56/82/2 57/80/2 145/128/2
f 145/128/2 57/80/2 58/78/2 146/129/2
f 146/129/2 58/78/2 59/76/2 147/130/2
f 147/130/2 59/76/2 60/74/2 148/131/2
f 148/131/2 60/74/2 61/72/2 149/132/2
f 149/132/2 61/72/2 62/5/2 150/4/2
